# xmcd
#
# Track frame offsets:
#	150
#	19692
#	36210
#	42640
#	48115
#	56865
#	63612
#	70825
#	78047
#	85177
#	94029
#	100287
#	107437
#	114447
#	121779
#	128790
#	136952
#	143915
#	150852
#	157197
#	165559
#	172140
#	180375
#
# Disc length: 2494 seconds
#
# Revision: 1
# Processed by: cddbd v1.5.2PL0 Copyright (c) Steve Scherf et al.
# Submitted via: audiograbber 1.82.01
#
DISCID=2d09bc17
DTITLE=Sierra - Hold on to love (Promo)
DYEAR=1996
DGENRE=
TTITLE0=Hold on to love
TTITLE1=Question 1
TTITLE2=Question 2
TTITLE3=Question 3
TTITLE4=Question 4
TTITLE5=Question 5
TTITLE6=Question 6
TTITLE7=Question 7
TTITLE8=Question 8
TTITLE9=Question 9
TTITLE10=Question 10
TTITLE11=Question 11
TTITLE12=Question 12
TTITLE13=Question 13
TTITLE14=Question 14
TTITLE15=Question 15
TTITLE16=Question 16
TTITLE17=Question 17
TTITLE18=Question 18
TTITLE19=Question 19
TTITLE20=Question 20
TTITLE21=Question 21
TTITLE22=Question 22
EXTD=
EXTT0=
EXTT1=
EXTT2=
EXTT3=
EXTT4=
EXTT5=
EXTT6=
EXTT7=
EXTT8=
EXTT9=
EXTT10=
EXTT11=
EXTT12=
EXTT13=
EXTT14=
EXTT15=
EXTT16=
EXTT17=
EXTT18=
EXTT19=
EXTT20=
EXTT21=
EXTT22=
PLAYORDER=
